<svg version="1.1" xmlns="http://www.w3.org/2000/svg" viewBox="0 0 1212.607421875 428.947265625" width="2425.21484375" height="857.89453125">
  <!-- svg-source:excalidraw -->
  
  <defs>
    <style>
      @font-face {
        font-family: "Virgil";
        src: url("https://excalidraw.com/Virgil.woff2");
      }
      @font-face {
        font-family: "Cascadia";
        src: url("https://excalidraw.com/Cascadia.woff2");
      }
    </style>
  </defs>
  <g stroke-linecap="round" transform="translate(10 230.033203125) rotate(0 150.7578125 94.45703125)"><path d="M0 0 L301.52 0 L301.52 188.91 L0 188.91" stroke="none" stroke-width="0" fill="#607d8b"></path><path d="M0 0 C102.95 0, 205.91 0, 301.52 0 M0 0 C74.06 0, 148.11 0, 301.52 0 M301.52 0 C301.52 59.41, 301.52 118.83, 301.52 188.91 M301.52 0 C301.52 44.33, 301.52 88.67, 301.52 188.91 M301.52 188.91 C229.83 188.91, 158.15 188.91, 0 188.91 M301.52 188.91 C223.04 188.91, 144.57 188.91, 0 188.91 M0 188.91 C0 133.6, 0 78.28, 0 0 M0 188.91 C0 125.71, 0 62.5, 0 0" stroke="#000000" stroke-width="2" fill="none"></path></g><g transform="translate(91.93359375 308.474609375) rotate(0 66 17)"><text x="66" y="27" font-family="Cascadia, Segoe UI Emoji" font-size="28px" fill="#ffffff" text-anchor="middle" style="white-space: pre;" direction="ltr">Merchant</text></g><g stroke-linecap="round" transform="translate(459.2314453125 10) rotate(0 150.7578125 94.45703125)"><path d="M0 0 L301.52 0 L301.52 188.91 L0 188.91" stroke="none" stroke-width="0" fill="#2196f3"></path><path d="M0 0 C95.82 0, 191.64 0, 301.52 0 M0 0 C100.52 0, 201.05 0, 301.52 0 M301.52 0 C301.52 52.64, 301.52 105.29, 301.52 188.91 M301.52 0 C301.52 38.35, 301.52 76.71, 301.52 188.91 M301.52 188.91 C215.9 188.91, 130.28 188.91, 0 188.91 M301.52 188.91 C227.26 188.91, 153.01 188.91, 0 188.91 M0 188.91 C0 149.73, 0 110.54, 0 0 M0 188.91 C0 117.44, 0 45.97, 0 0" stroke="#000000" stroke-width="2" fill="none"></path></g><g transform="translate(541.1650390625 88.44140625) rotate(0 66 17)"><text x="66" y="27" font-family="Cascadia, Segoe UI Emoji" font-size="28px" fill="#ffffff" text-anchor="middle" style="white-space: pre;" direction="ltr">SisTerra</text></g><g stroke-linecap="round"><g transform="translate(158.63309294902 227.072265625) rotate(0 148.78062149424 -67.33101633155479)"><path d="M0 0 C49.59 -22.44, 247.97 -112.22, 297.56 -134.66 M0 0 C49.59 -22.44, 247.97 -112.22, 297.56 -134.66" stroke="#212121" stroke-width="2" fill="none"></path></g><g transform="translate(158.63309294902 227.072265625) rotate(0 148.78062149424 -67.33101633155479)"><path d="M276.11 -113.69 C282.65 -120.09, 289.2 -126.49, 297.56 -134.66 M276.11 -113.69 C282.32 -119.77, 288.54 -125.84, 297.56 -134.66" stroke="#212121" stroke-width="2" fill="none"></path></g><g transform="translate(158.63309294902 227.072265625) rotate(0 148.78062149424 -67.33101633155479)"><path d="M267.65 -132.39 C276.77 -133.08, 285.9 -133.77, 297.56 -134.66 M267.65 -132.39 C276.31 -133.05, 284.98 -133.7, 297.56 -134.66" stroke="#212121" stroke-width="2" fill="none"></path></g></g><g transform="translate(160.3408203125 98.11376953125) rotate(0 90.5 17)"><text x="90.5" y="27" font-family="Cascadia, Segoe UI Emoji" font-size="28px" fill="#212121" text-anchor="middle" style="white-space: pre;" direction="ltr">Utiliza ERP</text></g><g stroke-linecap="round" transform="translate(901.091796875 230.033203125) rotate(0 150.7578125 94.45703125)"><path d="M0 0 L301.52 0 L301.52 188.91 L0 188.91" stroke="none" stroke-width="0" fill="#1976d2"></path><path d="M0 0 C101.01 0, 202.03 0, 301.52 0 M0 0 C78.12 0, 156.24 0, 301.52 0 M301.52 0 C301.52 72.36, 301.52 144.72, 301.52 188.91 M301.52 0 C301.52 44.8, 301.52 89.61, 301.52 188.91 M301.52 188.91 C220.57 188.91, 139.62 188.91, 0 188.91 M301.52 188.91 C205.61 188.91, 109.71 188.91, 0 188.91 M0 188.91 C0 115.36, 0 41.8, 0 0 M0 188.91 C0 140.68, 0 92.45, 0 0" stroke="#000000" stroke-width="2" fill="none"></path></g><g transform="translate(967.9072265625 308.11328125) rotate(0 82.5 17)"><text x="82.5" y="27" font-family="Cascadia, Segoe UI Emoji" font-size="28px" fill="#ffffff" text-anchor="middle" style="white-space: pre;" direction="ltr">Integrador</text></g><g stroke-linecap="round"><g transform="translate(317.6796875 320.5172815117333) rotate(0 291.015625 0.2200963160712206)"><path d="M0 0 C97.01 0.07, 485.03 0.37, 582.03 0.44 M0 0 C97.01 0.07, 485.03 0.37, 582.03 0.44" stroke="#212121" stroke-width="2" fill="none"></path></g><g transform="translate(317.6796875 320.5172815117333) rotate(0 291.015625 0.2200963160712206)"><path d="M553.83 10.68 C564.23 6.9, 574.64 3.13, 582.03 0.44 M553.83 10.68 C564.75 6.71, 575.67 2.75, 582.03 0.44" stroke="#212121" stroke-width="2" fill="none"></path></g><g transform="translate(317.6796875 320.5172815117333) rotate(0 291.015625 0.2200963160712206)"><path d="M553.85 -9.84 C564.24 -6.05, 574.64 -2.26, 582.03 0.44 M553.85 -9.84 C564.76 -5.86, 575.68 -1.88, 582.03 0.44" stroke="#212121" stroke-width="2" fill="none"></path></g></g><g transform="translate(420.9892578125 327.7939453125) rotate(0 189 17)"><text x="189" y="27" font-family="Cascadia, Segoe UI Emoji" font-size="28px" fill="#212121" text-anchor="middle" style="white-space: pre;" direction="ltr">Fornece Chave de Acesso</text></g><g stroke-linecap="round"><g transform="translate(1004.7184123432312 228.267578125) rotate(0 -118.1848897653656 -66.71184913398784)"><path d="M0 0 C-39.39 -22.24, -196.97 -111.19, -236.37 -133.42 M0 0 C-39.39 -22.24, -196.97 -111.19, -236.37 -133.42" stroke="#212121" stroke-width="2" fill="none"></path></g><g transform="translate(1004.7184123432312 228.267578125) rotate(0 -118.1848897653656 -66.71184913398784)"><path d="M-206.78 -128.5 C-214.97 -129.87, -223.17 -131.23, -236.37 -133.42 M-206.78 -128.5 C-215.58 -129.97, -224.38 -131.43, -236.37 -133.42" stroke="#212121" stroke-width="2" fill="none"></path></g><g transform="translate(1004.7184123432312 228.267578125) rotate(0 -118.1848897653656 -66.71184913398784)"><path d="M-216.86 -110.63 C-222.27 -116.95, -227.67 -123.26, -236.37 -133.42 M-216.86 -110.63 C-222.66 -117.41, -228.46 -124.19, -236.37 -133.42" stroke="#212121" stroke-width="2" fill="none"></path></g></g><g transform="translate(883.72265625 106.81005859375) rotate(0 90.5 17)"><text x="90.5" y="27" font-family="Cascadia, Segoe UI Emoji" font-size="28px" fill="#212121" text-anchor="middle" style="white-space: pre;" direction="ltr">Utiliza API</text></g></svg>